<svg width="100%" height="100%" viewBox="0 0 531.336 119.648" fill="none" xmlns="http://www.w3.org/2000/svg">
  <path d="M54.375 119.648Q37.695 119.648 25.469 112.559Q13.242 105.469 6.621 92.402Q0 79.336 0 61.406Q0 43.438 6.641 30.352Q13.281 17.266 25.488 10.176Q37.695 3.086 54.375 3.086Q71.094 3.086 83.281 10.176Q95.469 17.266 102.109 30.352Q108.75 43.438 108.75 61.406Q108.75 79.336 102.109 92.402Q95.469 105.469 83.281 112.559Q71.094 119.648 54.375 119.648ZM54.375 99.961Q63.633 99.961 70.43 95.234Q77.227 90.508 80.938 81.836Q84.648 73.164 84.648 61.406Q84.648 49.57 80.918 40.898Q77.188 32.227 70.41 27.5Q63.633 22.773 54.375 22.773Q45.195 22.773 38.379 27.5Q31.562 32.227 27.832 40.898Q24.102 49.57 24.102 61.406Q24.102 73.164 27.812 81.836Q31.523 90.508 38.34 95.234Q45.156 99.961 54.375 99.961ZM156.156 119.531Q143.539 119.531 134.281 114.258Q125.023 108.984 119.965 99.199Q114.906 89.414 114.906 75.898Q114.906 62.461 119.945 52.656Q124.984 42.852 134.223 37.52Q143.461 32.188 156 32.188Q164.398 32.188 171.586 34.707Q178.773 37.227 183.91 41.738Q189.047 46.25 191.312 52.227Q192.602 55.195 192.602 57.852Q192.602 62.031 189.73 64.395Q186.859 66.758 182.836 66.758Q179.477 66.758 177.23 65.332Q174.984 63.906 173.188 60.781Q170.141 55.312 166.156 52.695Q162.172 50.078 156.703 50.078Q148.031 50.078 143.031 56.875Q138.031 63.672 138.031 75.82Q138.031 88.125 143.031 94.883Q148.031 101.641 156.586 101.641Q162.562 101.641 166.449 98.965Q170.336 96.289 172.992 91.797Q175.258 88.242 177.523 86.68Q179.789 85.117 183.383 85.117Q187.367 85.117 190.16 87.559Q192.953 90 192.953 94.258Q192.953 95.586 192.621 97.031Q192.289 98.477 191.469 100.195Q188.969 105.859 183.695 110.234Q178.422 114.609 171.312 117.07Q164.203 119.531 156.156 119.531ZM207.195 96.328L207.195 51.211L202.82 51.211Q198.797 51.211 196.414 48.867Q194.031 46.523 194.031 42.578Q194.031 38.594 196.414 36.289Q198.797 33.984 202.82 33.984L207.195 33.984L207.195 24.727Q207.195 19.18 210.242 15.996Q213.289 12.812 218.602 12.812Q223.914 12.812 226.961 15.996Q230.008 19.18 230.008 24.727L230.008 33.984L238.055 33.984Q242.117 33.984 244.48 36.309Q246.844 38.633 246.844 42.578Q246.844 46.523 244.48 48.867Q242.117 51.211 238.055 51.211L230.008 51.211L230.008 91.289Q230.008 95.703 231.648 97.734Q233.289 99.766 236.961 100.117L238.484 100.273Q242.703 100.703 244.91 102.637Q247.117 104.57 247.117 108.555Q247.117 111.875 245.086 114.141Q243.055 116.406 239.422 117.539Q235.789 118.672 230.945 118.672L230.164 118.672Q218.758 118.672 212.977 113.047Q207.195 107.422 207.195 96.328ZM291.203 119.531Q278.547 119.531 269.23 114.336Q259.914 109.141 254.816 99.336Q249.719 89.531 249.719 75.82Q249.719 62.227 254.875 52.461Q260.031 42.695 269.348 37.441Q278.664 32.188 291.203 32.188Q303.781 32.188 313.098 37.422Q322.414 42.656 327.551 52.422Q332.688 62.188 332.688 75.82Q332.688 89.57 327.59 99.355Q322.492 109.141 313.195 114.336Q303.898 119.531 291.203 119.531ZM291.203 102.109Q296.789 102.109 300.91 99.062Q305.031 96.016 307.277 90.117Q309.523 84.219 309.523 75.859Q309.523 67.539 307.277 61.66Q305.031 55.781 300.91 52.695Q296.789 49.609 291.203 49.609Q285.656 49.609 281.535 52.695Q277.414 55.781 275.148 61.66Q272.883 67.539 272.883 75.859Q272.883 84.219 275.129 90.117Q277.375 96.016 281.496 99.062Q285.617 102.109 291.203 102.109ZM354.195 119.414Q348.688 119.414 345.543 116.152Q342.398 112.891 342.398 107.109L342.398 17.305Q342.398 11.445 345.523 8.223Q348.648 5 354.195 5L388.57 5Q401.539 5 410.641 9.355Q419.742 13.711 424.527 21.758Q429.312 29.805 429.312 40.938Q429.312 51.523 424.312 59.941Q419.312 68.359 409.977 72.383L426.188 100.469Q427.711 103.008 428.199 104.766Q428.688 106.523 428.688 108.594Q428.688 113.281 425.328 116.348Q421.969 119.414 416.852 119.414Q414 119.414 412.027 118.613Q410.055 117.812 408.395 115.859Q406.734 113.906 404.781 110.508L386.07 76.523Q386.07 76.523 386.07 76.523Q386.07 76.523 386.07 76.523L365.992 76.523L365.992 107.109Q365.992 112.891 362.867 116.152Q359.742 119.414 354.195 119.414ZM365.992 59.375L386.305 59.375Q395.211 59.375 400.172 54.609Q405.133 49.844 405.133 41.445Q405.133 33.242 399.996 28.359Q394.859 23.477 386.031 23.477L365.992 23.477ZM450.625 23.594Q445.508 23.594 441.973 20.156Q438.438 16.719 438.438 11.797Q438.438 6.797 441.973 3.398Q445.508 0 450.625 0Q455.781 0 459.316 3.398Q462.852 6.797 462.852 11.797Q462.852 16.719 459.316 20.156Q455.781 23.594 450.625 23.594ZM450.625 119.414Q445.352 119.414 442.285 116.23Q439.219 113.047 439.219 107.5L439.219 44.219Q439.219 38.672 442.285 35.488Q445.352 32.305 450.625 32.305Q455.938 32.305 458.984 35.508Q462.031 38.711 462.031 44.258L462.031 107.5Q462.031 113.047 458.984 116.23Q455.938 119.414 450.625 119.414ZM485.18 119.414Q480.18 119.414 476.977 116.387Q473.773 113.359 473.773 107.5L473.773 15.234Q473.773 9.375 476.977 6.348Q480.18 3.32 485.18 3.32Q490.18 3.32 493.383 6.348Q496.586 9.375 496.586 15.273L496.586 107.5Q496.586 113.359 493.383 116.387Q490.18 119.414 485.18 119.414ZM519.93 119.414Q514.93 119.414 511.727 116.387Q508.523 113.359 508.523 107.5L508.523 15.234Q508.523 9.375 511.727 6.348Q514.93 3.32 519.93 3.32Q524.93 3.32 528.133 6.348Q531.336 9.375 531.336 15.273L531.336 107.5Q531.336 113.359 528.133 116.387Q524.93 119.414 519.93 119.414Z" fill="currentColor"/>
</svg>
